<?xml version="1.0" encoding="UTF-8" standalone="no"?>
<svg
   id="logo"
   width="75"
   height="92.927"
   viewBox="0 0 75 92.927"
   version="1.1"
   sodipodi:docname="logo.svg"
   xmlns:inkscape="http://www.inkscape.org/namespaces/inkscape"
   xmlns:sodipodi="http://sodipodi.sourceforge.net/DTD/sodipodi-0.dtd"
   xmlns="http://www.w3.org/2000/svg"
   xmlns:svg="http://www.w3.org/2000/svg">
  <sodipodi:namedview
     id="namedview13"
     pagecolor="#ffffff"
     bordercolor="#000000"
     borderopacity="0.25"
     inkscape:showpageshadow="2"
     inkscape:pageopacity="0.0"
     inkscape:pagecheckerboard="0"
     inkscape:deskcolor="#d1d1d1" />
  <defs
     id="defs4">
    <clipPath
       id="clip-path">
      <rect
         id="Rectangle_1"
         data-name="Rectangle 1"
         width="75"
         height="92.927"
         fill="none" />
    </clipPath>
  </defs>
  <g
     id="Group_1"
     data-name="Group 1"
     clip-path="url(#clip-path)">
    <path
       id="Path_1"
       data-name="Path 1"
       d="M46.9,56.071a2.519,2.519,0,0,0-.841-.74,2.1,2.1,0,0,0-1.043-.337H37.553a2.189,2.189,0,0,0-1.11.337,1.9,1.9,0,0,0-.774.74L26.588,72.418,20.6,56.272a2.1,2.1,0,0,0-.807-.875,2.172,2.172,0,0,0-1.211-.4H5.6a2.091,2.091,0,0,0-1.816.841,1.739,1.739,0,0,0-.067,1.917L19.389,93.274a1.531,1.531,0,0,0,.74.841,2.211,2.211,0,0,0,1.144.37H27.53a2.015,2.015,0,0,0,1.076-.337,2.607,2.607,0,0,0,.808-.74L40.446,73.629,51.412,93.408a1.9,1.9,0,0,0,.774.74,2.185,2.185,0,0,0,1.11.337h6.257a1.89,1.89,0,0,0,1.076-.37,2.6,2.6,0,0,0,.808-.841L77.448,57.752a1.828,1.828,0,0,0-.135-1.917,2.022,2.022,0,0,0-1.749-.841H63.589a2.383,2.383,0,0,0-1.178.37,1.5,1.5,0,0,0-.774.908L55.381,72.284Z"
       transform="translate(-2.693 -42.787)"
       fill="#fff" />
    <path
       id="Path_2"
       data-name="Path 2"
       d="M30.746,278.153a2.519,2.519,0,0,0,.838.744,2.1,2.1,0,0,0,1.041.341l7.468.033a2.189,2.189,0,0,0,1.112-.332,1.9,1.9,0,0,0,.777-.737l9.153-16.308,5.917,16.172a2.094,2.094,0,0,0,.8.878,2.17,2.17,0,0,0,1.209.409l12.984.057a2.092,2.092,0,0,0,1.82-.833,1.739,1.739,0,0,0,.075-1.917L58.424,241.071a1.53,1.53,0,0,0-.736-.844,2.209,2.209,0,0,0-1.142-.375l-6.257-.027a2.018,2.018,0,0,0-1.078.332,2.6,2.6,0,0,0-.81.736l-11.12,19.73L26.4,240.8a1.9,1.9,0,0,0-.77-.744,2.189,2.189,0,0,0-1.108-.341l-6.256-.027a1.889,1.889,0,0,0-1.078.365,2.6,2.6,0,0,0-.811.837L.21,276.338a1.828,1.828,0,0,0,.126,1.918,2.022,2.022,0,0,0,1.745.849l11.975.052a2.385,2.385,0,0,0,1.179-.365,1.5,1.5,0,0,0,.778-.9L22.34,261.9Z"
       transform="translate(0 -186.483)"
       fill="#fff" />
    <path
       id="Path_3"
       data-name="Path 3"
       d="M138.958,168.962l8.122,14.4a2.216,2.216,0,0,1-.106,1.993l-7.785,13.059c-.348.583-.869.64-1.158.127l-8.121-14.4a2.213,2.213,0,0,1,.105-1.993l7.785-13.059c.347-.583.868-.64,1.158-.127"
       transform="translate(-100.926 -131.186)"
       fill="#d21113"
       fill-rule="evenodd" />
    <path
       id="Path_4"
       data-name="Path 4"
       d="M74.27,7.823a5.861,5.861,0,0,1-1.438-.179,7.128,7.128,0,0,1-1.36-.492.086.086,0,0,1-.034-.011.462.462,0,0,0-.056-.022.274.274,0,0,1-.084-.073.121.121,0,0,1-.028-.062q0-.011.123-.241t.291-.52q.157-.257.291-.5t.224-.386l.185.084a1.175,1.175,0,0,1,.117.061,5.352,5.352,0,0,0,.985.38A3.89,3.89,0,0,0,74.516,6h.151a1.087,1.087,0,0,0,.151-.011.949.949,0,0,0,.3-.045.659.659,0,0,0,.23-.157.425.425,0,0,0,.1-.3.271.271,0,0,0-.112-.23,1.263,1.263,0,0,0-.235-.14c-.052-.022-.1-.041-.146-.056a2.079,2.079,0,0,0-.386-.117q-.2-.039-.4-.084Q73.9,4.8,73.643,4.74t-.5-.129a4.837,4.837,0,0,1-.481-.173,3.291,3.291,0,0,1-.425-.218,1.946,1.946,0,0,1-.66-.677,2.19,2.19,0,0,1-.246-1.114,2.236,2.236,0,0,1,.213-.951,2.2,2.2,0,0,1,.543-.733,2.706,2.706,0,0,1,.733-.453,3.407,3.407,0,0,1,.839-.229A6.241,6.241,0,0,1,74.527,0a5.819,5.819,0,0,1,1.427.179,4.9,4.9,0,0,1,1.393.6q-.257.437-.481.834t-.481.834A7.492,7.492,0,0,0,75.316,2a3.433,3.433,0,0,0-1.069-.162c-.075,0-.159,0-.252.006a.814.814,0,0,0-.257.05.534.534,0,0,0-.2.134.363.363,0,0,0-.084.257.361.361,0,0,0,.252.341,3.457,3.457,0,0,0,.409.129q.246.067.543.129t.61.151q.313.078.638.185a3.322,3.322,0,0,1,.61.269,2.637,2.637,0,0,1,.515.38,1.618,1.618,0,0,1,.364.521,1.848,1.848,0,0,1,.14.481,3.333,3.333,0,0,1,.039.5,2.231,2.231,0,0,1-.3,1.209,2.247,2.247,0,0,1-.772.75,3.2,3.2,0,0,1-1.063.386,6.562,6.562,0,0,1-1.17.106m-9.837-.235V.213H66.5V5.719H70.33V7.588Zm-7.286,0V.213H63V2.059H59.094v.906h3.693V4.823H59.094V5.73H63V7.588ZM52.592,2.126H51.574V5.652h1.018a1.7,1.7,0,0,0,.688-.14,1.807,1.807,0,0,0,.56-.379,1.831,1.831,0,0,0,.38-.558,1.755,1.755,0,0,0,0-1.373,1.83,1.83,0,0,0-.38-.558,1.811,1.811,0,0,0-.56-.379,1.7,1.7,0,0,0-.688-.14M52.8,7.588H49.481V.213H52.8A3.555,3.555,0,0,1,54.23.5a3.8,3.8,0,0,1,1.173.789,3.685,3.685,0,0,1,.793,1.17,3.563,3.563,0,0,1,.291,1.433A3.563,3.563,0,0,1,56.2,5.327,3.732,3.732,0,0,1,54.23,7.3a3.555,3.555,0,0,1-1.431.291m-8.55-5.562a1.679,1.679,0,0,0-.709.151,1.805,1.805,0,0,0-.569.407,1.965,1.965,0,0,0-.379.6,1.923,1.923,0,0,0,0,1.44,2.041,2.041,0,0,0,.379.6,1.763,1.763,0,0,0,.569.412,1.74,1.74,0,0,0,1.418,0,1.763,1.763,0,0,0,.569-.412A1.984,1.984,0,0,0,45.9,3.18a1.881,1.881,0,0,0-.373-.6,1.805,1.805,0,0,0-.569-.407,1.678,1.678,0,0,0-.709-.151m-.006,5.786A3.816,3.816,0,0,1,42.721,7.5a4,4,0,0,1-1.248-.834,3.884,3.884,0,0,1-.839-1.242,3.816,3.816,0,0,1-.308-1.522,3.776,3.776,0,0,1,.308-1.516A3.93,3.93,0,0,1,42.721.308a3.917,3.917,0,0,1,3.044,0,4,4,0,0,1,1.248.834,3.885,3.885,0,0,1,.839,1.242,3.815,3.815,0,0,1,.308,1.522,3.815,3.815,0,0,1-.308,1.522,3.888,3.888,0,0,1-.839,1.242,4,4,0,0,1-1.248.834,3.817,3.817,0,0,1-1.522.308m-21.5-.224-2.272-3.57v3.57H18.391V.213h2.037L22.7,3.805V.213h2.082V7.588ZM15.089.213h2.16V7.588h-2.16ZM11.553,7.588H9.9l-1.1-3-1.108,3H6.036L3.305.213h2.25L6.864,3.749,8.173.213H9.427l1.3,3.537L12.034.213h2.25Z"
       transform="translate(-2.571 0)"
       fill="#d21113" />
    <path
       id="Path_5"
       data-name="Path 5"
       d="M123.446,1.16h1.566l1.172,3.159,1.158-3.161h1.566l2.7,7.3H129.5l-1.37-3.7-1.366,3.7H125.6l-1.37-3.7-1.366,3.7h-2.113Z"
       transform="translate(-93.95 -0.9)"
       fill="#d21113" />
  </g>
</svg>
